<mxfile host="app.diagrams.net" modified="2023-02-17T08:45:11.921Z" agent="5.0 (Windows NT 10.0; Win64; x64) AppleWebKit/537.36 (KHTML, like Gecko) Chrome/110.0.0.0 Safari/537.36" etag="DGqni-BZHqJdhtXWaijy" version="20.8.20" type="github" pages="4">
  <diagram id="C5RBs43oDa-KdzZeNtuy" name="Page-1">
    <mxGraphModel dx="1036" dy="477" grid="1" gridSize="10" guides="1" tooltips="1" connect="1" arrows="1" fold="1" page="1" pageScale="1" pageWidth="827" pageHeight="1169" math="0" shadow="0">
      <root>
        <mxCell id="WIyWlLk6GJQsqaUBKTNV-0" />
        <mxCell id="WIyWlLk6GJQsqaUBKTNV-1" parent="WIyWlLk6GJQsqaUBKTNV-0" />
        <mxCell id="v4yIkJS6WLjM88-UY6ED-9" value="" style="edgeStyle=orthogonalEdgeStyle;rounded=0;orthogonalLoop=1;jettySize=auto;html=1;" parent="WIyWlLk6GJQsqaUBKTNV-1" source="v4yIkJS6WLjM88-UY6ED-0" target="v4yIkJS6WLjM88-UY6ED-2" edge="1">
          <mxGeometry relative="1" as="geometry" />
        </mxCell>
        <mxCell id="v4yIkJS6WLjM88-UY6ED-0" value="Start" style="strokeWidth=2;html=1;shape=mxgraph.flowchart.terminator;whiteSpace=wrap;" parent="WIyWlLk6GJQsqaUBKTNV-1" vertex="1">
          <mxGeometry x="320" y="60" width="100" height="60" as="geometry" />
        </mxCell>
        <mxCell id="v4yIkJS6WLjM88-UY6ED-10" value="" style="edgeStyle=orthogonalEdgeStyle;rounded=0;orthogonalLoop=1;jettySize=auto;html=1;" parent="WIyWlLk6GJQsqaUBKTNV-1" source="v4yIkJS6WLjM88-UY6ED-2" target="v4yIkJS6WLjM88-UY6ED-3" edge="1">
          <mxGeometry relative="1" as="geometry" />
        </mxCell>
        <mxCell id="v4yIkJS6WLjM88-UY6ED-2" value="N = Generate random integer number from 0 to 9" style="rounded=1;whiteSpace=wrap;html=1;absoluteArcSize=1;arcSize=14;strokeWidth=2;" parent="WIyWlLk6GJQsqaUBKTNV-1" vertex="1">
          <mxGeometry x="280" y="164" width="180" height="50" as="geometry" />
        </mxCell>
        <mxCell id="v4yIkJS6WLjM88-UY6ED-15" value="" style="edgeStyle=orthogonalEdgeStyle;rounded=0;orthogonalLoop=1;jettySize=auto;html=1;" parent="WIyWlLk6GJQsqaUBKTNV-1" source="v4yIkJS6WLjM88-UY6ED-3" target="v4yIkJS6WLjM88-UY6ED-5" edge="1">
          <mxGeometry relative="1" as="geometry" />
        </mxCell>
        <mxCell id="v4yIkJS6WLjM88-UY6ED-3" value="Input M" style="shape=parallelogram;html=1;strokeWidth=2;perimeter=parallelogramPerimeter;whiteSpace=wrap;rounded=1;arcSize=12;size=0.23;" parent="WIyWlLk6GJQsqaUBKTNV-1" vertex="1">
          <mxGeometry x="290" y="258" width="160" height="60" as="geometry" />
        </mxCell>
        <mxCell id="v4yIkJS6WLjM88-UY6ED-11" style="edgeStyle=orthogonalEdgeStyle;rounded=0;orthogonalLoop=1;jettySize=auto;html=1;" parent="WIyWlLk6GJQsqaUBKTNV-1" source="v4yIkJS6WLjM88-UY6ED-5" target="v4yIkJS6WLjM88-UY6ED-6" edge="1">
          <mxGeometry relative="1" as="geometry" />
        </mxCell>
        <mxCell id="v4yIkJS6WLjM88-UY6ED-12" style="edgeStyle=orthogonalEdgeStyle;rounded=0;orthogonalLoop=1;jettySize=auto;html=1;" parent="WIyWlLk6GJQsqaUBKTNV-1" source="v4yIkJS6WLjM88-UY6ED-5" target="v4yIkJS6WLjM88-UY6ED-7" edge="1">
          <mxGeometry relative="1" as="geometry" />
        </mxCell>
        <mxCell id="v4yIkJS6WLjM88-UY6ED-5" value="M == N?" style="strokeWidth=2;html=1;shape=mxgraph.flowchart.decision;whiteSpace=wrap;" parent="WIyWlLk6GJQsqaUBKTNV-1" vertex="1">
          <mxGeometry x="320" y="343" width="100" height="100" as="geometry" />
        </mxCell>
        <mxCell id="v4yIkJS6WLjM88-UY6ED-13" style="edgeStyle=orthogonalEdgeStyle;rounded=0;orthogonalLoop=1;jettySize=auto;html=1;entryX=0.5;entryY=0;entryDx=0;entryDy=0;entryPerimeter=0;" parent="WIyWlLk6GJQsqaUBKTNV-1" source="v4yIkJS6WLjM88-UY6ED-6" target="v4yIkJS6WLjM88-UY6ED-8" edge="1">
          <mxGeometry relative="1" as="geometry">
            <Array as="points">
              <mxPoint x="230" y="540" />
              <mxPoint x="370" y="540" />
            </Array>
          </mxGeometry>
        </mxCell>
        <mxCell id="v4yIkJS6WLjM88-UY6ED-6" value="Output CORRECT" style="shape=parallelogram;html=1;strokeWidth=2;perimeter=parallelogramPerimeter;whiteSpace=wrap;rounded=1;arcSize=12;size=0.23;" parent="WIyWlLk6GJQsqaUBKTNV-1" vertex="1">
          <mxGeometry x="160" y="456" width="140" height="60" as="geometry" />
        </mxCell>
        <mxCell id="v4yIkJS6WLjM88-UY6ED-14" style="edgeStyle=orthogonalEdgeStyle;rounded=0;orthogonalLoop=1;jettySize=auto;html=1;entryX=0.5;entryY=0;entryDx=0;entryDy=0;entryPerimeter=0;" parent="WIyWlLk6GJQsqaUBKTNV-1" source="v4yIkJS6WLjM88-UY6ED-7" target="v4yIkJS6WLjM88-UY6ED-8" edge="1">
          <mxGeometry relative="1" as="geometry">
            <Array as="points">
              <mxPoint x="518" y="540" />
              <mxPoint x="370" y="540" />
            </Array>
          </mxGeometry>
        </mxCell>
        <mxCell id="v4yIkJS6WLjM88-UY6ED-7" value="Output&amp;nbsp; INCORRECT" style="shape=parallelogram;html=1;strokeWidth=2;perimeter=parallelogramPerimeter;whiteSpace=wrap;rounded=1;arcSize=12;size=0.23;" parent="WIyWlLk6GJQsqaUBKTNV-1" vertex="1">
          <mxGeometry x="438" y="456" width="160" height="60" as="geometry" />
        </mxCell>
        <mxCell id="v4yIkJS6WLjM88-UY6ED-8" value="END" style="strokeWidth=2;html=1;shape=mxgraph.flowchart.terminator;whiteSpace=wrap;" parent="WIyWlLk6GJQsqaUBKTNV-1" vertex="1">
          <mxGeometry x="320" y="555" width="100" height="60" as="geometry" />
        </mxCell>
      </root>
    </mxGraphModel>
  </diagram>
  <diagram id="UJizs1IpXPdNqR7uypSo" name="Trang-2">
    <mxGraphModel dx="1036" dy="477" grid="1" gridSize="10" guides="1" tooltips="1" connect="1" arrows="1" fold="1" page="1" pageScale="1" pageWidth="827" pageHeight="1169" math="0" shadow="0">
      <root>
        <mxCell id="0" />
        <mxCell id="1" parent="0" />
        <mxCell id="P42CmBf70uMnjL5V3utF-1" value="" style="group" parent="1" vertex="1" connectable="0">
          <mxGeometry x="245" y="280" width="170" height="460" as="geometry" />
        </mxCell>
        <mxCell id="K-V37f_LpJ2-fhpsndIQ-6" value="BEGIN" style="strokeWidth=2;html=1;shape=mxgraph.flowchart.terminator;whiteSpace=wrap;fillColor=#f5f5f5;fontColor=#333333;strokeColor=#666666;" parent="P42CmBf70uMnjL5V3utF-1" vertex="1">
          <mxGeometry x="35" width="100" height="60" as="geometry" />
        </mxCell>
        <mxCell id="K-V37f_LpJ2-fhpsndIQ-7" value="INPUT Math&lt;br&gt;INPUT Physics&lt;br&gt;INPUT Chemistry" style="shape=parallelogram;html=1;strokeWidth=2;perimeter=parallelogramPerimeter;whiteSpace=wrap;rounded=1;arcSize=12;size=0.23;fillColor=#f5f5f5;fontColor=#333333;strokeColor=#666666;" parent="P42CmBf70uMnjL5V3utF-1" vertex="1">
          <mxGeometry x="5" y="100" width="160" height="60" as="geometry" />
        </mxCell>
        <mxCell id="K-V37f_LpJ2-fhpsndIQ-11" value="" style="edgeStyle=orthogonalEdgeStyle;rounded=0;orthogonalLoop=1;jettySize=auto;html=1;" parent="P42CmBf70uMnjL5V3utF-1" source="K-V37f_LpJ2-fhpsndIQ-6" target="K-V37f_LpJ2-fhpsndIQ-7" edge="1">
          <mxGeometry relative="1" as="geometry" />
        </mxCell>
        <mxCell id="K-V37f_LpJ2-fhpsndIQ-8" value="Avarage = (Math+Physics+Chemistry)/3" style="rounded=1;whiteSpace=wrap;html=1;absoluteArcSize=1;arcSize=14;strokeWidth=2;fillColor=#f5f5f5;fontColor=#333333;strokeColor=#666666;" parent="P42CmBf70uMnjL5V3utF-1" vertex="1">
          <mxGeometry y="205" width="170" height="50" as="geometry" />
        </mxCell>
        <mxCell id="K-V37f_LpJ2-fhpsndIQ-12" value="" style="edgeStyle=orthogonalEdgeStyle;rounded=0;orthogonalLoop=1;jettySize=auto;html=1;" parent="P42CmBf70uMnjL5V3utF-1" source="K-V37f_LpJ2-fhpsndIQ-7" target="K-V37f_LpJ2-fhpsndIQ-8" edge="1">
          <mxGeometry relative="1" as="geometry" />
        </mxCell>
        <mxCell id="K-V37f_LpJ2-fhpsndIQ-9" value="Display Avarage" style="shape=parallelogram;html=1;strokeWidth=2;perimeter=parallelogramPerimeter;whiteSpace=wrap;rounded=1;arcSize=12;size=0.23;fillColor=#f5f5f5;fontColor=#333333;strokeColor=#666666;" parent="P42CmBf70uMnjL5V3utF-1" vertex="1">
          <mxGeometry x="15" y="300" width="140" height="60" as="geometry" />
        </mxCell>
        <mxCell id="K-V37f_LpJ2-fhpsndIQ-13" value="" style="edgeStyle=orthogonalEdgeStyle;rounded=0;orthogonalLoop=1;jettySize=auto;html=1;" parent="P42CmBf70uMnjL5V3utF-1" source="K-V37f_LpJ2-fhpsndIQ-8" target="K-V37f_LpJ2-fhpsndIQ-9" edge="1">
          <mxGeometry relative="1" as="geometry" />
        </mxCell>
        <mxCell id="K-V37f_LpJ2-fhpsndIQ-10" value="END" style="strokeWidth=2;html=1;shape=mxgraph.flowchart.terminator;whiteSpace=wrap;fillColor=#f5f5f5;fontColor=#333333;strokeColor=#666666;" parent="P42CmBf70uMnjL5V3utF-1" vertex="1">
          <mxGeometry x="35" y="400" width="100" height="60" as="geometry" />
        </mxCell>
        <mxCell id="K-V37f_LpJ2-fhpsndIQ-14" value="" style="edgeStyle=orthogonalEdgeStyle;rounded=0;orthogonalLoop=1;jettySize=auto;html=1;" parent="P42CmBf70uMnjL5V3utF-1" source="K-V37f_LpJ2-fhpsndIQ-9" target="K-V37f_LpJ2-fhpsndIQ-10" edge="1">
          <mxGeometry relative="1" as="geometry" />
        </mxCell>
      </root>
    </mxGraphModel>
  </diagram>
  <diagram id="-F3RGamh9ZbGo6v2ZLto" name="currency">
    <mxGraphModel dx="1036" dy="477" grid="1" gridSize="10" guides="1" tooltips="1" connect="1" arrows="1" fold="1" page="1" pageScale="1" pageWidth="827" pageHeight="1169" math="0" shadow="0">
      <root>
        <mxCell id="0" />
        <mxCell id="1" parent="0" />
        <mxCell id="iL5fjX5b5ZEpEnCluo9q-12" value="" style="group" vertex="1" connectable="0" parent="1">
          <mxGeometry x="200" y="110" width="457.5" height="460" as="geometry" />
        </mxCell>
        <mxCell id="iL5fjX5b5ZEpEnCluo9q-2" value="BEGIN" style="strokeWidth=2;html=1;shape=mxgraph.flowchart.terminator;whiteSpace=wrap;fillColor=#f5f5f5;fontColor=#333333;strokeColor=#666666;" vertex="1" parent="iL5fjX5b5ZEpEnCluo9q-12">
          <mxGeometry x="42.5" width="100" height="60" as="geometry" />
        </mxCell>
        <mxCell id="iL5fjX5b5ZEpEnCluo9q-3" value="INPUT&amp;nbsp; N Number USD" style="shape=parallelogram;html=1;strokeWidth=2;perimeter=parallelogramPerimeter;whiteSpace=wrap;rounded=1;arcSize=12;size=0.23;fillColor=#f5f5f5;fontColor=#333333;strokeColor=#666666;" vertex="1" parent="iL5fjX5b5ZEpEnCluo9q-12">
          <mxGeometry y="100" width="185" height="60" as="geometry" />
        </mxCell>
        <mxCell id="iL5fjX5b5ZEpEnCluo9q-4" value="" style="edgeStyle=orthogonalEdgeStyle;rounded=0;orthogonalLoop=1;jettySize=auto;html=1;" edge="1" parent="iL5fjX5b5ZEpEnCluo9q-12" source="iL5fjX5b5ZEpEnCluo9q-2" target="iL5fjX5b5ZEpEnCluo9q-3">
          <mxGeometry relative="1" as="geometry" />
        </mxCell>
        <mxCell id="iL5fjX5b5ZEpEnCluo9q-5" value="VND = N*23000" style="rounded=1;whiteSpace=wrap;html=1;absoluteArcSize=1;arcSize=14;strokeWidth=2;fillColor=#f5f5f5;fontColor=#333333;strokeColor=#666666;" vertex="1" parent="iL5fjX5b5ZEpEnCluo9q-12">
          <mxGeometry x="7.5" y="205" width="170" height="50" as="geometry" />
        </mxCell>
        <mxCell id="iL5fjX5b5ZEpEnCluo9q-6" value="" style="edgeStyle=orthogonalEdgeStyle;rounded=0;orthogonalLoop=1;jettySize=auto;html=1;" edge="1" parent="iL5fjX5b5ZEpEnCluo9q-12" source="iL5fjX5b5ZEpEnCluo9q-3" target="iL5fjX5b5ZEpEnCluo9q-5">
          <mxGeometry relative="1" as="geometry" />
        </mxCell>
        <mxCell id="iL5fjX5b5ZEpEnCluo9q-7" value="Display VND" style="shape=parallelogram;html=1;strokeWidth=2;perimeter=parallelogramPerimeter;whiteSpace=wrap;rounded=1;arcSize=12;size=0.23;fillColor=#f5f5f5;fontColor=#333333;strokeColor=#666666;" vertex="1" parent="iL5fjX5b5ZEpEnCluo9q-12">
          <mxGeometry x="22.5" y="300" width="140" height="60" as="geometry" />
        </mxCell>
        <mxCell id="iL5fjX5b5ZEpEnCluo9q-8" value="" style="edgeStyle=orthogonalEdgeStyle;rounded=0;orthogonalLoop=1;jettySize=auto;html=1;" edge="1" parent="iL5fjX5b5ZEpEnCluo9q-12" source="iL5fjX5b5ZEpEnCluo9q-5" target="iL5fjX5b5ZEpEnCluo9q-7">
          <mxGeometry relative="1" as="geometry" />
        </mxCell>
        <mxCell id="iL5fjX5b5ZEpEnCluo9q-9" value="END" style="strokeWidth=2;html=1;shape=mxgraph.flowchart.terminator;whiteSpace=wrap;fillColor=#f5f5f5;fontColor=#333333;strokeColor=#666666;" vertex="1" parent="iL5fjX5b5ZEpEnCluo9q-12">
          <mxGeometry x="42.5" y="400" width="100" height="60" as="geometry" />
        </mxCell>
        <mxCell id="iL5fjX5b5ZEpEnCluo9q-10" value="" style="edgeStyle=orthogonalEdgeStyle;rounded=0;orthogonalLoop=1;jettySize=auto;html=1;" edge="1" parent="iL5fjX5b5ZEpEnCluo9q-12" source="iL5fjX5b5ZEpEnCluo9q-7" target="iL5fjX5b5ZEpEnCluo9q-9">
          <mxGeometry relative="1" as="geometry" />
        </mxCell>
        <mxCell id="iL5fjX5b5ZEpEnCluo9q-11" value="&lt;div&gt;BEGIN&lt;/div&gt;&lt;div&gt;&amp;nbsp; INPUT numUSD&lt;/div&gt;&lt;div&gt;&amp;nbsp; numVND = numUSD * 23000&lt;/div&gt;&lt;div&gt;&amp;nbsp; DISPLAY numVND&lt;/div&gt;&lt;div&gt;END&lt;/div&gt;" style="rounded=0;whiteSpace=wrap;html=1;align=left;" vertex="1" parent="iL5fjX5b5ZEpEnCluo9q-12">
          <mxGeometry x="267.5" width="190" height="110" as="geometry" />
        </mxCell>
      </root>
    </mxGraphModel>
  </diagram>
  <diagram id="3vfkiujXi78xaBfaLV1D" name="maxnumber">
    <mxGraphModel dx="1036" dy="477" grid="1" gridSize="10" guides="1" tooltips="1" connect="1" arrows="1" fold="1" page="1" pageScale="1" pageWidth="827" pageHeight="1169" math="0" shadow="0">
      <root>
        <mxCell id="0" />
        <mxCell id="1" parent="0" />
        <mxCell id="0NyZ2kMnoKFdQpxH0Jpr-25" value="" style="group" vertex="1" connectable="0" parent="1">
          <mxGeometry x="10" y="20" width="720" height="730" as="geometry" />
        </mxCell>
        <mxCell id="kAQm6vU3US-_HzF77P5S-1" value="&lt;div style=&quot;color: rgb(212, 212, 212); background-color: rgb(30, 30, 30); font-family: Consolas, &amp;quot;Courier New&amp;quot;, monospace; font-size: 14px; line-height: 19px;&quot;&gt;&lt;div style=&quot;line-height: 19px;&quot;&gt;&lt;div&gt;BEGIN&lt;/div&gt;&lt;div&gt;&amp;nbsp; &amp;nbsp; INPUT NUM1 NUM2 NUM3&lt;/div&gt;&lt;div&gt;&amp;nbsp; &amp;nbsp; MAX=NUM1&lt;/div&gt;&lt;div&gt;&amp;nbsp; &amp;nbsp; &lt;span style=&quot;color: #569cd6;&quot;&gt;IF&lt;/span&gt; (NUM2 &amp;gt; MAX) &lt;span style=&quot;color: #569cd6;&quot;&gt;OR&lt;/span&gt; (NUM3 &amp;gt; MAX)&lt;/div&gt;&lt;div&gt;&amp;nbsp; &amp;nbsp; &amp;nbsp; &amp;nbsp; &lt;span style=&quot;color: #569cd6;&quot;&gt;IF&lt;/span&gt; (NUM2 &amp;gt; NUM3)&lt;/div&gt;&lt;div&gt;&amp;nbsp; &amp;nbsp; &amp;nbsp; &amp;nbsp; &amp;nbsp; &amp;nbsp; MAX = NUM2&lt;/div&gt;&lt;div&gt;&amp;nbsp; &amp;nbsp; &amp;nbsp; &amp;nbsp; &lt;span style=&quot;color: #569cd6;&quot;&gt;ELSE&lt;/span&gt;&lt;/div&gt;&lt;div&gt;&amp;nbsp; &amp;nbsp; &amp;nbsp; &amp;nbsp; &amp;nbsp; &amp;nbsp; MAX = NUM3&lt;/div&gt;&lt;div&gt;&amp;nbsp; &amp;nbsp; &amp;nbsp; &amp;nbsp; &lt;span style=&quot;color: #569cd6;&quot;&gt;END&lt;/span&gt; &lt;span style=&quot;color: #569cd6;&quot;&gt;IF&lt;/span&gt;&lt;/div&gt;&lt;div&gt;&amp;nbsp; &amp;nbsp; &lt;span style=&quot;color: #569cd6;&quot;&gt;END&lt;/span&gt; &lt;span style=&quot;color: #569cd6;&quot;&gt;IF&lt;/span&gt;&lt;/div&gt;&lt;div&gt;&amp;nbsp; &amp;nbsp; DISPLAY MAX&lt;/div&gt;&lt;div&gt;&lt;span style=&quot;color: #569cd6;&quot;&gt;END&lt;/span&gt;&lt;/div&gt;&lt;/div&gt;&lt;/div&gt;" style="rounded=0;whiteSpace=wrap;html=1;align=left;" vertex="1" parent="0NyZ2kMnoKFdQpxH0Jpr-25">
          <mxGeometry x="440" width="280" height="190" as="geometry" />
        </mxCell>
        <mxCell id="0NyZ2kMnoKFdQpxH0Jpr-1" value="BEGIN" style="strokeWidth=2;html=1;shape=mxgraph.flowchart.terminator;whiteSpace=wrap;flipV=0;" vertex="1" parent="0NyZ2kMnoKFdQpxH0Jpr-25">
          <mxGeometry x="80" width="100" height="60" as="geometry" />
        </mxCell>
        <mxCell id="0NyZ2kMnoKFdQpxH0Jpr-2" value="INPUT Num1, Num2, Num3" style="shape=parallelogram;html=1;strokeWidth=2;perimeter=parallelogramPerimeter;whiteSpace=wrap;rounded=1;arcSize=12;size=0.23;flipV=0;" vertex="1" parent="0NyZ2kMnoKFdQpxH0Jpr-25">
          <mxGeometry x="75" y="94" width="110" height="60" as="geometry" />
        </mxCell>
        <mxCell id="0NyZ2kMnoKFdQpxH0Jpr-21" value="" style="edgeStyle=orthogonalEdgeStyle;rounded=0;orthogonalLoop=1;jettySize=auto;html=1;" edge="1" parent="0NyZ2kMnoKFdQpxH0Jpr-25" source="0NyZ2kMnoKFdQpxH0Jpr-1" target="0NyZ2kMnoKFdQpxH0Jpr-2">
          <mxGeometry relative="1" as="geometry" />
        </mxCell>
        <mxCell id="0NyZ2kMnoKFdQpxH0Jpr-3" value="MAX = Num1" style="rounded=1;whiteSpace=wrap;html=1;absoluteArcSize=1;arcSize=14;strokeWidth=2;flipV=0;" vertex="1" parent="0NyZ2kMnoKFdQpxH0Jpr-25">
          <mxGeometry x="80" y="198" width="100" height="40" as="geometry" />
        </mxCell>
        <mxCell id="0NyZ2kMnoKFdQpxH0Jpr-22" value="" style="edgeStyle=orthogonalEdgeStyle;rounded=0;orthogonalLoop=1;jettySize=auto;html=1;" edge="1" parent="0NyZ2kMnoKFdQpxH0Jpr-25" source="0NyZ2kMnoKFdQpxH0Jpr-2" target="0NyZ2kMnoKFdQpxH0Jpr-3">
          <mxGeometry relative="1" as="geometry" />
        </mxCell>
        <mxCell id="0NyZ2kMnoKFdQpxH0Jpr-4" value="Num2 &amp;gt; MAX OR Num3 &amp;gt; Max?" style="strokeWidth=2;html=1;shape=mxgraph.flowchart.decision;whiteSpace=wrap;flipV=0;" vertex="1" parent="0NyZ2kMnoKFdQpxH0Jpr-25">
          <mxGeometry x="35" y="278" width="190" height="70" as="geometry" />
        </mxCell>
        <mxCell id="0NyZ2kMnoKFdQpxH0Jpr-23" value="" style="edgeStyle=orthogonalEdgeStyle;rounded=0;orthogonalLoop=1;jettySize=auto;html=1;" edge="1" parent="0NyZ2kMnoKFdQpxH0Jpr-25" source="0NyZ2kMnoKFdQpxH0Jpr-3" target="0NyZ2kMnoKFdQpxH0Jpr-4">
          <mxGeometry relative="1" as="geometry" />
        </mxCell>
        <mxCell id="0NyZ2kMnoKFdQpxH0Jpr-13" style="edgeStyle=orthogonalEdgeStyle;rounded=0;orthogonalLoop=1;jettySize=auto;html=1;" edge="1" parent="0NyZ2kMnoKFdQpxH0Jpr-25" source="0NyZ2kMnoKFdQpxH0Jpr-5">
          <mxGeometry relative="1" as="geometry">
            <mxPoint x="240" y="480" as="targetPoint" />
          </mxGeometry>
        </mxCell>
        <mxCell id="0NyZ2kMnoKFdQpxH0Jpr-17" value="Flase" style="edgeLabel;html=1;align=center;verticalAlign=middle;resizable=0;points=[];" vertex="1" connectable="0" parent="0NyZ2kMnoKFdQpxH0Jpr-13">
          <mxGeometry x="-0.3233" y="1" relative="1" as="geometry">
            <mxPoint x="15" y="-1" as="offset" />
          </mxGeometry>
        </mxCell>
        <mxCell id="0NyZ2kMnoKFdQpxH0Jpr-5" value="Num2 &amp;gt; Num3?" style="strokeWidth=2;html=1;shape=mxgraph.flowchart.decision;whiteSpace=wrap;" vertex="1" parent="0NyZ2kMnoKFdQpxH0Jpr-25">
          <mxGeometry x="300" y="372" width="140" height="70" as="geometry" />
        </mxCell>
        <mxCell id="0NyZ2kMnoKFdQpxH0Jpr-11" style="edgeStyle=orthogonalEdgeStyle;rounded=0;orthogonalLoop=1;jettySize=auto;html=1;" edge="1" parent="0NyZ2kMnoKFdQpxH0Jpr-25" source="0NyZ2kMnoKFdQpxH0Jpr-4" target="0NyZ2kMnoKFdQpxH0Jpr-5">
          <mxGeometry relative="1" as="geometry">
            <mxPoint x="330" y="370" as="targetPoint" />
          </mxGeometry>
        </mxCell>
        <mxCell id="0NyZ2kMnoKFdQpxH0Jpr-12" value="True" style="edgeLabel;html=1;align=center;verticalAlign=middle;resizable=0;points=[];" vertex="1" connectable="0" parent="0NyZ2kMnoKFdQpxH0Jpr-11">
          <mxGeometry x="-0.4804" relative="1" as="geometry">
            <mxPoint as="offset" />
          </mxGeometry>
        </mxCell>
        <mxCell id="0NyZ2kMnoKFdQpxH0Jpr-6" value="MAX = Num3" style="rounded=1;whiteSpace=wrap;html=1;absoluteArcSize=1;arcSize=14;strokeWidth=2;flipV=0;" vertex="1" parent="0NyZ2kMnoKFdQpxH0Jpr-25">
          <mxGeometry x="190" y="481" width="100" height="40" as="geometry" />
        </mxCell>
        <mxCell id="0NyZ2kMnoKFdQpxH0Jpr-7" value="MAX = Num2" style="rounded=1;whiteSpace=wrap;html=1;absoluteArcSize=1;arcSize=14;strokeWidth=2;flipV=0;" vertex="1" parent="0NyZ2kMnoKFdQpxH0Jpr-25">
          <mxGeometry x="470" y="481" width="100" height="40" as="geometry" />
        </mxCell>
        <mxCell id="0NyZ2kMnoKFdQpxH0Jpr-14" style="edgeStyle=orthogonalEdgeStyle;rounded=0;orthogonalLoop=1;jettySize=auto;html=1;" edge="1" parent="0NyZ2kMnoKFdQpxH0Jpr-25" source="0NyZ2kMnoKFdQpxH0Jpr-5" target="0NyZ2kMnoKFdQpxH0Jpr-7">
          <mxGeometry relative="1" as="geometry" />
        </mxCell>
        <mxCell id="0NyZ2kMnoKFdQpxH0Jpr-18" value="True" style="edgeLabel;html=1;align=center;verticalAlign=middle;resizable=0;points=[];" vertex="1" connectable="0" parent="0NyZ2kMnoKFdQpxH0Jpr-14">
          <mxGeometry x="-0.3636" y="-2" relative="1" as="geometry">
            <mxPoint x="-9" y="-2" as="offset" />
          </mxGeometry>
        </mxCell>
        <mxCell id="0NyZ2kMnoKFdQpxH0Jpr-8" value="Display MAX" style="shape=parallelogram;html=1;strokeWidth=2;perimeter=parallelogramPerimeter;whiteSpace=wrap;rounded=1;arcSize=12;size=0.23;flipV=0;" vertex="1" parent="0NyZ2kMnoKFdQpxH0Jpr-25">
          <mxGeometry x="70" y="565" width="110" height="60" as="geometry" />
        </mxCell>
        <mxCell id="0NyZ2kMnoKFdQpxH0Jpr-19" style="edgeStyle=orthogonalEdgeStyle;rounded=0;orthogonalLoop=1;jettySize=auto;html=1;entryX=0.5;entryY=0;entryDx=0;entryDy=0;" edge="1" parent="0NyZ2kMnoKFdQpxH0Jpr-25" source="0NyZ2kMnoKFdQpxH0Jpr-4" target="0NyZ2kMnoKFdQpxH0Jpr-8">
          <mxGeometry relative="1" as="geometry">
            <Array as="points">
              <mxPoint y="313" />
              <mxPoint y="540" />
              <mxPoint x="125" y="540" />
            </Array>
          </mxGeometry>
        </mxCell>
        <mxCell id="0NyZ2kMnoKFdQpxH0Jpr-20" value="False" style="edgeLabel;html=1;align=center;verticalAlign=middle;resizable=0;points=[];" vertex="1" connectable="0" parent="0NyZ2kMnoKFdQpxH0Jpr-19">
          <mxGeometry x="-0.8621" relative="1" as="geometry">
            <mxPoint as="offset" />
          </mxGeometry>
        </mxCell>
        <mxCell id="0NyZ2kMnoKFdQpxH0Jpr-15" style="edgeStyle=orthogonalEdgeStyle;rounded=0;orthogonalLoop=1;jettySize=auto;html=1;" edge="1" parent="0NyZ2kMnoKFdQpxH0Jpr-25" source="0NyZ2kMnoKFdQpxH0Jpr-6" target="0NyZ2kMnoKFdQpxH0Jpr-8">
          <mxGeometry relative="1" as="geometry">
            <Array as="points">
              <mxPoint x="240" y="540" />
              <mxPoint x="125" y="540" />
            </Array>
          </mxGeometry>
        </mxCell>
        <mxCell id="0NyZ2kMnoKFdQpxH0Jpr-16" style="edgeStyle=orthogonalEdgeStyle;rounded=0;orthogonalLoop=1;jettySize=auto;html=1;" edge="1" parent="0NyZ2kMnoKFdQpxH0Jpr-25" source="0NyZ2kMnoKFdQpxH0Jpr-7" target="0NyZ2kMnoKFdQpxH0Jpr-8">
          <mxGeometry relative="1" as="geometry">
            <Array as="points">
              <mxPoint x="520" y="540" />
              <mxPoint x="125" y="540" />
            </Array>
          </mxGeometry>
        </mxCell>
        <mxCell id="0NyZ2kMnoKFdQpxH0Jpr-9" value="END" style="strokeWidth=2;html=1;shape=mxgraph.flowchart.terminator;whiteSpace=wrap;" vertex="1" parent="0NyZ2kMnoKFdQpxH0Jpr-25">
          <mxGeometry x="75" y="670" width="100" height="60" as="geometry" />
        </mxCell>
        <mxCell id="0NyZ2kMnoKFdQpxH0Jpr-24" value="" style="edgeStyle=orthogonalEdgeStyle;rounded=0;orthogonalLoop=1;jettySize=auto;html=1;" edge="1" parent="0NyZ2kMnoKFdQpxH0Jpr-25" source="0NyZ2kMnoKFdQpxH0Jpr-8" target="0NyZ2kMnoKFdQpxH0Jpr-9">
          <mxGeometry relative="1" as="geometry" />
        </mxCell>
      </root>
    </mxGraphModel>
  </diagram>
</mxfile>
